<svg width="375" height="135" viewBox="0 0 375 135" fill="none" xmlns="http://www.w3.org/2000/svg">
<g clip-path="url(#clip0_1_1843)">
<rect width="475.999" height="43" transform="matrix(0.990268 0.139173 -0.139155 0.990271 -45.0161 13.2463)" fill="#E9A923"/>
<path d="M-45.6996 40.4157L-46.8564 28.2967L-44.4322 28.6374L-43.709 37.1732L-40.3444 29.212L-38.1896 29.5148L-37.1653 38.0928L-34.1176 30.0871L-31.6934 30.4278L-36.1455 41.7584L-38.5379 41.4222L-39.7524 32.8174L-43.3071 40.7519L-45.6996 40.4157ZM-29.6157 42.7569C-29.8693 42.7213 -30.156 42.6541 -30.4761 42.5552C-30.7976 42.4669 -31.0996 42.3168 -31.3822 42.1047C-31.6542 41.8942 -31.8668 41.6058 -32.02 41.2395C-32.1611 40.8642 -32.1894 40.3756 -32.1048 39.7735L-31.1853 33.2298C-31.1125 32.7122 -30.9725 32.2902 -30.765 31.9639C-30.5576 31.6376 -30.3078 31.3927 -30.0155 31.2291C-29.7232 31.0655 -29.4127 30.9637 -29.0839 30.9238C-28.7552 30.8838 -28.4376 30.8853 -28.1313 30.9284C-27.3391 31.0397 -26.6434 31.1483 -26.0443 31.254C-25.4346 31.3612 -24.8891 31.4648 -24.4076 31.5648C-23.9247 31.6542 -23.4855 31.7483 -23.0901 31.8469L-23.3662 33.8116L-27.7392 33.197C-28.0666 33.151 -28.3313 33.1946 -28.5331 33.3278C-28.7349 33.461 -28.8589 33.6914 -28.9049 34.0188L-29.1431 35.7141L-24.5185 36.4933L-24.779 38.3471L-29.4392 37.8214L-29.6663 39.4376C-29.7049 39.7122 -29.6931 39.9347 -29.6309 40.105C-29.5566 40.2662 -29.45 40.3889 -29.311 40.4731C-29.16 40.5482 -28.9999 40.5976 -28.8309 40.6214L-24.4104 41.2426L-24.6865 43.2073C-25.1587 43.1948 -25.6822 43.1643 -26.257 43.1158C-26.8213 43.0689 -27.3954 43.0151 -27.9793 42.9546C-28.5527 42.8955 -29.0982 42.8297 -29.6157 42.7569ZM-18.9178 44.1796L-17.2702 32.4548L-12.6595 33.1028C-11.4976 33.2661 -10.6904 33.6542 -10.2379 34.2672C-9.77346 34.871 -9.61023 35.6641 -9.74828 36.6465C-9.81359 37.1112 -9.94013 37.5135 -10.1279 37.8534C-10.3037 38.1841 -10.5293 38.4486 -10.8049 38.6469C-11.079 38.8346 -11.391 38.9469 -11.7409 38.9839C-11.4963 39.0829 -11.2675 39.2174 -11.0544 39.3874C-10.8307 39.5588 -10.6402 39.7741 -10.4827 40.0332C-10.3147 40.2938 -10.2016 40.6005 -10.1434 40.9534C-10.0733 41.2972 -10.0686 41.6856 -10.1295 42.1187C-10.2408 42.9109 -10.4672 43.5254 -10.8086 43.9621C-11.1395 44.4003 -11.5838 44.6879 -12.1416 44.825C-12.6874 44.9529 -13.3406 44.9635 -14.1011 44.8566L-18.9178 44.1796ZM-16.2767 42.4019L-13.8684 42.7404C-13.5937 42.779 -13.3486 42.7595 -13.1331 42.6821C-12.9176 42.6047 -12.7414 42.4625 -12.6046 42.2555C-12.4572 42.05 -12.3576 41.7624 -12.3056 41.3927C-12.2626 41.0864 -12.2843 40.8195 -12.3708 40.5919C-12.4573 40.3643 -12.5928 40.1783 -12.7771 40.0339C-12.9615 39.8895 -13.1857 39.7987 -13.4498 39.7616L-15.8581 39.4232L-16.2767 42.4019ZM-15.6043 37.6169L-13.3227 37.9376C-12.9847 37.9851 -12.7036 37.9007 -12.4793 37.6845C-12.243 37.4592 -12.0966 37.1458 -12.0402 36.7444C-11.9569 36.2283 -12.0121 35.8544 -12.2057 35.6225C-12.3993 35.3906 -12.6546 35.2524 -12.9715 35.2079L-15.2213 34.8917L-15.6043 37.6169ZM-4.57471 46.2762C-5.21905 46.1856 -5.81371 46.0482 -6.3587 45.8639C-6.9022 45.669 -7.36592 45.4046 -7.74984 45.0706C-8.12171 44.7275 -8.38896 44.2914 -8.55158 43.7623C-8.70215 43.2241 -8.72252 42.5641 -8.61268 41.7825L-7.49499 33.8286L-5.15003 34.1582L-6.2655 42.0962C-6.32636 42.5293 -6.29009 42.8845 -6.15671 43.1617C-6.01277 43.4405 -5.78523 43.6609 -5.47411 43.8232C-5.15243 43.9869 -4.75392 44.1021 -4.27859 44.1689C-3.81383 44.2342 -3.40956 44.2318 -3.06578 44.1616C-2.71144 44.0929 -2.43196 43.9437 -2.22733 43.714C-2.01214 43.4857 -1.87411 43.155 -1.81325 42.7219L-0.697789 34.7839L1.66301 35.1157L0.545319 43.0696C0.435479 43.8512 0.228744 44.4792 -0.0748859 44.9536C-0.377032 45.4174 -0.754119 45.7629 -1.20615 45.9902C-1.65669 46.207 -2.17004 46.3341 -2.7462 46.3716C-3.31031 46.4 -3.91982 46.3682 -4.57471 46.2762ZM4.66646 47.4942L5.16519 43.945L2.78077 35.2728L5.2208 35.6157L6.7214 41.724L9.83148 36.2637L12.1764 36.5933L7.51014 44.2746L7.01141 47.8237L4.66646 47.4942ZM18.3677 49.4198L19.7192 39.8022L16.5028 39.3502L16.7989 37.2429L25.5925 38.4788L25.2963 40.5861L22.0641 40.1318L20.7126 49.7493L18.3677 49.4198ZM25.2111 50.3815L26.8586 38.6567L31.707 39.3381C32.1718 39.4034 32.5967 39.5224 32.9817 39.695C33.3683 39.857 33.6954 40.0969 33.9632 40.4146C34.2309 40.7323 34.4151 41.1459 34.5158 41.6556C34.6271 42.1667 34.6293 42.8025 34.5225 43.5631C34.4468 44.1018 34.3294 44.5538 34.1703 44.9193C34.0113 45.2847 33.8249 45.5762 33.6112 45.794C33.408 46.0131 33.1851 46.1811 32.9425 46.2978C32.6999 46.4145 32.4558 46.5041 32.21 46.5665L33.7353 51.5795L31.3428 51.2433L30.0674 46.637C29.9406 46.6191 29.7927 46.5984 29.6237 46.5746C29.4668 46.5418 29.3038 46.5135 29.1348 46.4897C28.9658 46.466 28.7968 46.4422 28.6278 46.4185C28.4588 46.3947 28.3063 46.3679 28.1705 46.3381L27.556 50.7111L25.2111 50.3815ZM28.431 44.4843L30.5225 44.7782C30.7337 44.8079 30.9276 44.8082 31.104 44.7791C31.2804 44.7501 31.4409 44.6811 31.5855 44.5721C31.7315 44.4526 31.8518 44.2864 31.9464 44.0735C32.0515 43.8621 32.1285 43.5821 32.1775 43.2335C32.2235 42.9061 32.2244 42.6315 32.1802 42.4099C32.1479 42.1791 32.0766 41.9968 31.9662 41.8628C31.8573 41.7182 31.7213 41.6129 31.5582 41.5469C31.3966 41.4703 31.2102 41.4172 30.9989 41.3875L28.9075 41.0936L28.431 44.4843ZM34.4 51.673L39.7235 40.4648L42.6863 40.8812L44.7146 53.1226L42.2746 52.7797L41.875 50.2191L37.8823 49.658L36.8083 52.0114L34.4 51.673ZM38.7329 47.6286L41.6166 48.0339L40.8984 42.6819L38.7329 47.6286ZM45.6818 53.2585L46.9531 44.2114C47.0258 43.6938 47.1659 43.2719 47.3733 42.9456C47.5807 42.6192 47.8306 42.3743 48.1229 42.2107C48.4151 42.0471 48.7256 41.9454 49.0544 41.9054C49.3832 41.8654 49.7007 41.867 50.007 41.91C50.3873 41.9635 50.8566 42.0348 51.4149 42.124C51.9853 42.2042 52.5852 42.3047 53.2145 42.4254C53.8544 42.5477 54.4656 42.6821 55.0483 42.8286L54.7722 44.7933L50.3516 44.172C50.0242 44.126 49.7633 44.1809 49.5691 44.3367C49.3869 44.4834 49.2758 44.6994 49.2357 44.9846L48.9551 46.981L53.5797 47.7602L53.3192 49.614L48.659 49.0883L48.0267 53.5881L45.6818 53.2585ZM54.7644 54.535L56.0357 45.4879C56.1084 44.9703 56.2485 44.5483 56.4559 44.222C56.6633 43.8957 56.9132 43.6508 57.2055 43.4872C57.4977 43.3236 57.8083 43.2218 58.137 43.1819C58.4658 43.1419 58.7833 43.1434 59.0896 43.1865C59.4699 43.2399 59.9392 43.3113 60.4976 43.4005C61.068 43.4807 61.6678 43.5811 62.2971 43.7019C62.937 43.8242 63.5483 43.9585 64.1309 44.105L63.8548 46.0697L59.4342 45.4485C59.1068 45.4024 58.8459 45.4573 58.6517 45.6132C58.4695 45.7599 58.3584 45.9759 58.3183 46.2611L58.0378 48.2575L62.6623 49.0367L62.4018 50.8904L57.7416 50.3647L57.1093 54.8645L54.7644 54.535ZM64.0017 55.8332L65.6493 44.1084L67.9943 44.438L66.3467 56.1628L64.0017 55.8332ZM72.3124 57.0981C71.6258 57.0016 71.0296 56.8371 70.5237 56.6044C70.0284 56.3732 69.6256 56.0204 69.3153 55.5459C69.0155 55.0729 68.8255 54.4322 68.7452 53.6239C68.6769 52.8064 68.7311 51.7692 68.9078 50.5122C69.0785 49.2975 69.313 48.3179 69.6115 47.5736C69.9221 46.8201 70.2919 46.2581 70.7209 45.8875C71.1515 45.5064 71.6427 45.2685 72.1946 45.1737C72.7465 45.0789 73.3552 45.0783 74.0206 45.1718C74.5488 45.246 75.0355 45.3468 75.4808 45.474C75.9382 45.5921 76.3457 45.7194 76.7036 45.8559C77.0629 45.9818 77.3626 46.1101 77.6028 46.2407L77.3467 48.0628C77.1625 47.9939 76.9097 47.9153 76.5881 47.827C76.2772 47.7402 75.9172 47.6573 75.5083 47.5783C75.1008 47.4887 74.6699 47.412 74.2157 47.3481C73.7721 47.2858 73.3844 47.2852 73.0526 47.3463C72.733 47.3983 72.4588 47.5482 72.23 47.7961C72.0134 48.035 71.8219 48.4012 71.6556 48.8949C71.4998 49.39 71.3648 50.0443 71.2505 50.8576C71.1406 51.6393 71.0871 52.2888 71.0898 52.8062C71.103 53.3251 71.1794 53.7398 71.3189 54.0502C71.4599 54.3501 71.6754 54.5796 71.9653 54.7389C72.2674 54.889 72.6561 54.9975 73.1314 55.0643C73.9342 55.1771 74.586 55.2526 75.0869 55.2907C75.5984 55.3303 76.0103 55.3504 76.3225 55.3512L76.0687 57.1575C75.7702 57.2125 75.4308 57.251 75.0507 57.2729C74.6721 57.2844 74.2588 57.2747 73.8107 57.2441C73.3611 57.224 72.8617 57.1753 72.3124 57.0981Z" fill="white"/>
<mask id="path-2-outside-1_1_1843" maskUnits="userSpaceOnUse" x="107.483" y="49.5709" width="128.702" height="31.6779" fill="black">
<rect fill="white" x="107.483" y="49.5709" width="128.702" height="31.6779"/>
<path d="M111.424 62.9302L110.267 50.8112L112.691 51.1519L113.415 59.6877L116.779 51.7264L118.934 52.0293L119.958 60.6073L123.006 52.6016L125.43 52.9422L120.978 64.2729L118.586 63.9367L117.371 55.3319L113.816 63.2664L111.424 62.9302Z"/>
<path d="M127.508 65.2714C127.254 65.2358 126.968 65.1685 126.647 65.0697C126.326 64.9814 126.024 64.8313 125.741 64.6192C125.469 64.4086 125.257 64.1202 125.104 63.754C124.962 63.3787 124.934 62.89 125.019 62.2879L125.938 55.7442C126.011 55.2267 126.151 54.8047 126.359 54.4784C126.566 54.1521 126.816 53.9072 127.108 53.7436C127.4 53.58 127.711 53.4782 128.04 53.4382C128.368 53.3983 128.686 53.3998 128.992 53.4429C129.784 53.5542 130.48 53.6627 131.079 53.7685C131.689 53.8757 132.234 53.9793 132.716 54.0793C133.199 54.1687 133.638 54.2627 134.033 54.3614L133.757 56.3261L129.384 55.7115C129.057 55.6655 128.792 55.7091 128.59 55.8423C128.389 55.9755 128.265 56.2058 128.219 56.5333L127.98 58.2286L132.605 59.0078L132.344 60.8616L127.684 60.3359L127.457 61.952C127.419 62.2267 127.43 62.4492 127.493 62.6195C127.567 62.7807 127.674 62.9034 127.813 62.9876C127.964 63.0627 128.124 63.1121 128.293 63.1358L132.713 63.7571L132.437 65.7218C131.965 65.7093 131.441 65.6788 130.867 65.6303C130.302 65.5833 129.728 65.5296 129.144 65.4691C128.571 65.41 128.025 65.3441 127.508 65.2714Z"/>
<path d="M138.206 66.6941L139.853 54.9693L144.464 55.6173C145.626 55.7806 146.433 56.1687 146.886 56.7816C147.35 57.3855 147.513 58.1786 147.375 59.1609C147.31 59.6257 147.183 60.028 146.996 60.3679C146.82 60.6986 146.594 60.9631 146.319 61.1614C146.045 61.349 145.732 61.4614 145.383 61.4984C145.627 61.5974 145.856 61.7319 146.069 61.9018C146.293 62.0733 146.483 62.2886 146.641 62.5477C146.809 62.8083 146.922 63.115 146.98 63.4679C147.05 63.8116 147.055 64.2001 146.994 64.6331C146.883 65.4254 146.656 66.0398 146.315 66.4766C145.984 66.9148 145.54 67.2024 144.982 67.3394C144.436 67.4674 143.783 67.4779 143.022 67.371L138.206 66.6941ZM140.847 64.9164L143.255 65.2548C143.53 65.2934 143.775 65.274 143.99 65.1966C144.206 65.1192 144.382 64.977 144.519 64.77C144.666 64.5645 144.766 64.2769 144.818 63.9072C144.861 63.6009 144.839 63.3339 144.753 63.1064C144.666 62.8788 144.531 62.6928 144.346 62.5484C144.162 62.404 143.938 62.3132 143.674 62.2761L141.265 61.9376L140.847 64.9164ZM141.519 60.1314L143.801 60.452C144.139 60.4995 144.42 60.4152 144.644 60.199C144.881 59.9737 145.027 59.6603 145.083 59.2589C145.167 58.7428 145.111 58.3688 144.918 58.137C144.724 57.9051 144.469 57.7669 144.152 57.7224L141.902 57.4062L141.519 60.1314Z"/>
<path d="M152.549 68.7907C151.904 68.7001 151.31 68.5627 150.765 68.3784C150.221 68.1835 149.758 67.9191 149.374 67.5851C149.002 67.242 148.735 66.8059 148.572 66.2767C148.421 65.7385 148.401 65.0786 148.511 64.297L149.629 56.3431L151.974 56.6727L150.858 64.6107C150.797 65.0438 150.833 65.3989 150.967 65.6762C151.111 65.9549 151.338 66.1754 151.649 66.3376C151.971 66.5013 152.37 66.6166 152.845 66.6834C153.31 66.7487 153.714 66.7463 154.058 66.6761C154.412 66.6074 154.692 66.4582 154.896 66.2284C155.111 66.0002 155.249 65.6695 155.31 65.2364L156.426 57.2984L158.787 57.6302L157.669 65.584C157.559 66.3657 157.352 66.9937 157.049 67.4681C156.747 67.9319 156.369 68.2774 155.917 68.5047C155.467 68.7214 154.954 68.8486 154.377 68.8861C153.813 68.9145 153.204 68.8827 152.549 68.7907Z"/>
<path d="M161.79 70.0087L162.289 66.4595L159.904 57.7873L162.344 58.1302L163.845 64.2385L166.955 58.7782L169.3 59.1078L164.634 66.7891L164.135 70.3382L161.79 70.0087Z"/>
<path d="M175.491 71.9342L176.843 62.3167L173.626 61.8647L173.922 59.7574L182.716 60.9933L182.42 63.1005L179.188 62.6463L177.836 72.2638L175.491 71.9342Z"/>
<path d="M182.335 72.896L183.982 61.1712L188.831 61.8526C189.295 61.9179 189.72 62.0369 190.105 62.2095C190.492 62.3715 190.819 62.6114 191.087 62.9291C191.354 63.2468 191.539 63.6604 191.639 64.1701C191.751 64.6812 191.753 65.317 191.646 66.0775C191.57 66.6163 191.453 67.0683 191.294 67.4337C191.135 67.7992 190.948 68.0907 190.735 68.3084C190.532 68.5276 190.309 68.6956 190.066 68.8123C189.823 68.929 189.579 69.0185 189.334 69.081L190.859 74.094L188.466 73.7578L187.191 69.1514C187.064 69.1336 186.916 69.1128 186.747 69.0891C186.59 69.0563 186.427 69.028 186.258 69.0042C186.089 68.9805 185.92 68.9567 185.751 68.933C185.582 68.9092 185.43 68.8824 185.294 68.8525L184.68 73.2256L182.335 72.896ZM185.555 66.9987L187.646 67.2927C187.857 67.3224 188.051 67.3227 188.228 67.2936C188.404 67.2646 188.564 67.1956 188.709 67.0866C188.855 66.9671 188.975 66.8009 189.07 66.588C189.175 66.3766 189.252 66.0966 189.301 65.748C189.347 65.4205 189.348 65.146 189.304 64.9243C189.271 64.6936 189.2 64.5112 189.09 64.3772C188.981 64.2327 188.845 64.1274 188.682 64.0614C188.52 63.9848 188.334 63.9317 188.122 63.902L186.031 63.6081L185.555 66.9987Z"/>
<path d="M191.524 74.1874L196.847 62.9792L199.81 63.3956L201.838 75.6371L199.398 75.2941L198.999 72.7336L195.006 72.1725L193.932 74.5259L191.524 74.1874ZM195.856 70.1431L198.74 70.5484L198.022 65.1963L195.856 70.1431Z"/>
<path d="M202.805 75.773L204.077 66.7259C204.149 66.2083 204.289 65.7863 204.497 65.46C204.704 65.1337 204.954 64.8888 205.246 64.7252C205.539 64.5616 205.849 64.4598 206.178 64.4199C206.507 64.3799 206.824 64.3814 207.131 64.4245C207.511 64.4779 207.98 64.5493 208.538 64.6385C209.109 64.7187 209.709 64.8191 210.338 64.9399C210.978 65.0622 211.589 65.1965 212.172 65.343L211.896 67.3077L207.475 66.6865C207.148 66.6404 206.887 66.6953 206.693 66.8512C206.51 66.9979 206.399 67.2139 206.359 67.4991L206.079 69.4955L210.703 70.2747L210.443 72.1284L205.783 71.6027L205.15 76.1025L202.805 75.773Z"/>
<path d="M211.888 77.0495L213.159 68.0023C213.232 67.4848 213.372 67.0628 213.579 66.7365C213.787 66.4102 214.037 66.1653 214.329 66.0017C214.621 65.8381 214.932 65.7363 215.261 65.6963C215.589 65.6564 215.907 65.6579 216.213 65.701C216.593 65.7544 217.063 65.8258 217.621 65.915C218.191 65.9952 218.791 66.0956 219.421 66.2164C220.061 66.3386 220.672 66.473 221.254 66.6195L220.978 68.5842L216.558 67.9629C216.23 67.9169 215.969 67.9718 215.775 68.1276C215.593 68.2744 215.482 68.4903 215.442 68.7755L215.161 70.7719L219.786 71.5511L219.525 73.4049L214.865 72.8792L214.233 77.379L211.888 77.0495Z"/>
<path d="M221.125 78.3477L222.773 66.6229L225.118 66.9524L223.47 78.6772L221.125 78.3477Z"/>
<path d="M229.436 79.6126C228.749 79.5161 228.153 79.3515 227.647 79.1189C227.152 78.8877 226.749 78.5349 226.439 78.0604C226.139 77.5874 225.949 76.9467 225.869 76.1383C225.8 75.3209 225.855 74.2837 226.031 73.0267C226.202 71.812 226.437 70.8324 226.735 70.088C227.046 69.3346 227.415 68.7726 227.844 68.402C228.275 68.0209 228.766 67.783 229.318 67.6882C229.87 67.5934 230.479 67.5928 231.144 67.6863C231.672 67.7605 232.159 67.8612 232.604 67.9884C233.062 68.1066 233.469 68.2339 233.827 68.3703C234.186 68.4962 234.486 68.6245 234.726 68.7552L234.47 70.5773C234.286 70.5084 234.033 70.4297 233.712 70.3415C233.401 70.2547 233.041 70.1718 232.632 70.0927C232.224 70.0032 231.793 69.9265 231.339 69.8626C230.896 69.8003 230.508 69.7996 230.176 69.8607C229.857 69.9127 229.582 70.0627 229.354 70.3106C229.137 70.5495 228.945 70.9157 228.779 71.4094C228.623 71.9045 228.488 72.5587 228.374 73.3721C228.264 74.1537 228.211 74.8033 228.213 75.3207C228.227 75.8396 228.303 76.2542 228.442 76.5647C228.583 76.8646 228.799 77.0941 229.089 77.2534C229.391 77.4035 229.78 77.512 230.255 77.5788C231.058 77.6916 231.71 77.7671 232.21 77.8052C232.722 77.8447 233.134 77.8649 233.446 77.8657L233.192 79.672C232.894 79.727 232.554 79.7654 232.174 79.7874C231.796 79.7988 231.382 79.7892 230.934 79.7586C230.485 79.7385 229.985 79.6898 229.436 79.6126Z"/>
</mask>
<path d="M111.424 62.9302L110.267 50.8112L112.691 51.1519L113.415 59.6877L116.779 51.7264L118.934 52.0293L119.958 60.6073L123.006 52.6016L125.43 52.9422L120.978 64.2729L118.586 63.9367L117.371 55.3319L113.816 63.2664L111.424 62.9302Z" stroke="white" stroke-width="1.5" mask="url(#path-2-outside-1_1_1843)"/>
<path d="M127.508 65.2714C127.254 65.2358 126.968 65.1685 126.647 65.0697C126.326 64.9814 126.024 64.8313 125.741 64.6192C125.469 64.4086 125.257 64.1202 125.104 63.754C124.962 63.3787 124.934 62.89 125.019 62.2879L125.938 55.7442C126.011 55.2267 126.151 54.8047 126.359 54.4784C126.566 54.1521 126.816 53.9072 127.108 53.7436C127.4 53.58 127.711 53.4782 128.04 53.4382C128.368 53.3983 128.686 53.3998 128.992 53.4429C129.784 53.5542 130.48 53.6627 131.079 53.7685C131.689 53.8757 132.234 53.9793 132.716 54.0793C133.199 54.1687 133.638 54.2627 134.033 54.3614L133.757 56.3261L129.384 55.7115C129.057 55.6655 128.792 55.7091 128.59 55.8423C128.389 55.9755 128.265 56.2058 128.219 56.5333L127.98 58.2286L132.605 59.0078L132.344 60.8616L127.684 60.3359L127.457 61.952C127.419 62.2267 127.43 62.4492 127.493 62.6195C127.567 62.7807 127.674 62.9034 127.813 62.9876C127.964 63.0627 128.124 63.1121 128.293 63.1358L132.713 63.7571L132.437 65.7218C131.965 65.7093 131.441 65.6788 130.867 65.6303C130.302 65.5833 129.728 65.5296 129.144 65.4691C128.571 65.41 128.025 65.3441 127.508 65.2714Z" stroke="white" stroke-width="1.5" mask="url(#path-2-outside-1_1_1843)"/>
<path d="M138.206 66.6941L139.853 54.9693L144.464 55.6173C145.626 55.7806 146.433 56.1687 146.886 56.7816C147.35 57.3855 147.513 58.1786 147.375 59.1609C147.31 59.6257 147.183 60.028 146.996 60.3679C146.82 60.6986 146.594 60.9631 146.319 61.1614C146.045 61.349 145.732 61.4614 145.383 61.4984C145.627 61.5974 145.856 61.7319 146.069 61.9018C146.293 62.0733 146.483 62.2886 146.641 62.5477C146.809 62.8083 146.922 63.115 146.98 63.4679C147.05 63.8116 147.055 64.2001 146.994 64.6331C146.883 65.4254 146.656 66.0398 146.315 66.4766C145.984 66.9148 145.54 67.2024 144.982 67.3394C144.436 67.4674 143.783 67.4779 143.022 67.371L138.206 66.6941ZM140.847 64.9164L143.255 65.2548C143.53 65.2934 143.775 65.274 143.99 65.1966C144.206 65.1192 144.382 64.977 144.519 64.77C144.666 64.5645 144.766 64.2769 144.818 63.9072C144.861 63.6009 144.839 63.3339 144.753 63.1064C144.666 62.8788 144.531 62.6928 144.346 62.5484C144.162 62.404 143.938 62.3132 143.674 62.2761L141.265 61.9376L140.847 64.9164ZM141.519 60.1314L143.801 60.452C144.139 60.4995 144.42 60.4152 144.644 60.199C144.881 59.9737 145.027 59.6603 145.083 59.2589C145.167 58.7428 145.111 58.3688 144.918 58.137C144.724 57.9051 144.469 57.7669 144.152 57.7224L141.902 57.4062L141.519 60.1314Z" stroke="white" stroke-width="1.5" mask="url(#path-2-outside-1_1_1843)"/>
<path d="M152.549 68.7907C151.904 68.7001 151.31 68.5627 150.765 68.3784C150.221 68.1835 149.758 67.9191 149.374 67.5851C149.002 67.242 148.735 66.8059 148.572 66.2767C148.421 65.7385 148.401 65.0786 148.511 64.297L149.629 56.3431L151.974 56.6727L150.858 64.6107C150.797 65.0438 150.833 65.3989 150.967 65.6762C151.111 65.9549 151.338 66.1754 151.649 66.3376C151.971 66.5013 152.37 66.6166 152.845 66.6834C153.31 66.7487 153.714 66.7463 154.058 66.6761C154.412 66.6074 154.692 66.4582 154.896 66.2284C155.111 66.0002 155.249 65.6695 155.31 65.2364L156.426 57.2984L158.787 57.6302L157.669 65.584C157.559 66.3657 157.352 66.9937 157.049 67.4681C156.747 67.9319 156.369 68.2774 155.917 68.5047C155.467 68.7214 154.954 68.8486 154.377 68.8861C153.813 68.9145 153.204 68.8827 152.549 68.7907Z" stroke="white" stroke-width="1.5" mask="url(#path-2-outside-1_1_1843)"/>
<path d="M161.79 70.0087L162.289 66.4595L159.904 57.7873L162.344 58.1302L163.845 64.2385L166.955 58.7782L169.3 59.1078L164.634 66.7891L164.135 70.3382L161.79 70.0087Z" stroke="white" stroke-width="1.5" mask="url(#path-2-outside-1_1_1843)"/>
<path d="M175.491 71.9342L176.843 62.3167L173.626 61.8647L173.922 59.7574L182.716 60.9933L182.42 63.1005L179.188 62.6463L177.836 72.2638L175.491 71.9342Z" stroke="white" stroke-width="1.5" mask="url(#path-2-outside-1_1_1843)"/>
<path d="M182.335 72.896L183.982 61.1712L188.831 61.8526C189.295 61.9179 189.72 62.0369 190.105 62.2095C190.492 62.3715 190.819 62.6114 191.087 62.9291C191.354 63.2468 191.539 63.6604 191.639 64.1701C191.751 64.6812 191.753 65.317 191.646 66.0775C191.57 66.6163 191.453 67.0683 191.294 67.4337C191.135 67.7992 190.948 68.0907 190.735 68.3084C190.532 68.5276 190.309 68.6956 190.066 68.8123C189.823 68.929 189.579 69.0185 189.334 69.081L190.859 74.094L188.466 73.7578L187.191 69.1514C187.064 69.1336 186.916 69.1128 186.747 69.0891C186.59 69.0563 186.427 69.028 186.258 69.0042C186.089 68.9805 185.92 68.9567 185.751 68.933C185.582 68.9092 185.43 68.8824 185.294 68.8525L184.68 73.2256L182.335 72.896ZM185.555 66.9987L187.646 67.2927C187.857 67.3224 188.051 67.3227 188.228 67.2936C188.404 67.2646 188.564 67.1956 188.709 67.0866C188.855 66.9671 188.975 66.8009 189.07 66.588C189.175 66.3766 189.252 66.0966 189.301 65.748C189.347 65.4205 189.348 65.146 189.304 64.9243C189.271 64.6936 189.2 64.5112 189.09 64.3772C188.981 64.2327 188.845 64.1274 188.682 64.0614C188.52 63.9848 188.334 63.9317 188.122 63.902L186.031 63.6081L185.555 66.9987Z" stroke="white" stroke-width="1.5" mask="url(#path-2-outside-1_1_1843)"/>
<path d="M191.524 74.1874L196.847 62.9792L199.81 63.3956L201.838 75.6371L199.398 75.2941L198.999 72.7336L195.006 72.1725L193.932 74.5259L191.524 74.1874ZM195.856 70.1431L198.74 70.5484L198.022 65.1963L195.856 70.1431Z" stroke="white" stroke-width="1.5" mask="url(#path-2-outside-1_1_1843)"/>
<path d="M202.805 75.773L204.077 66.7259C204.149 66.2083 204.289 65.7863 204.497 65.46C204.704 65.1337 204.954 64.8888 205.246 64.7252C205.539 64.5616 205.849 64.4598 206.178 64.4199C206.507 64.3799 206.824 64.3814 207.131 64.4245C207.511 64.4779 207.98 64.5493 208.538 64.6385C209.109 64.7187 209.709 64.8191 210.338 64.9399C210.978 65.0622 211.589 65.1965 212.172 65.343L211.896 67.3077L207.475 66.6865C207.148 66.6404 206.887 66.6953 206.693 66.8512C206.51 66.9979 206.399 67.2139 206.359 67.4991L206.079 69.4955L210.703 70.2747L210.443 72.1284L205.783 71.6027L205.15 76.1025L202.805 75.773Z" stroke="white" stroke-width="1.5" mask="url(#path-2-outside-1_1_1843)"/>
<path d="M211.888 77.0495L213.159 68.0023C213.232 67.4848 213.372 67.0628 213.579 66.7365C213.787 66.4102 214.037 66.1653 214.329 66.0017C214.621 65.8381 214.932 65.7363 215.261 65.6963C215.589 65.6564 215.907 65.6579 216.213 65.701C216.593 65.7544 217.063 65.8258 217.621 65.915C218.191 65.9952 218.791 66.0956 219.421 66.2164C220.061 66.3386 220.672 66.473 221.254 66.6195L220.978 68.5842L216.558 67.9629C216.23 67.9169 215.969 67.9718 215.775 68.1276C215.593 68.2744 215.482 68.4903 215.442 68.7755L215.161 70.7719L219.786 71.5511L219.525 73.4049L214.865 72.8792L214.233 77.379L211.888 77.0495Z" stroke="white" stroke-width="1.5" mask="url(#path-2-outside-1_1_1843)"/>
<path d="M221.125 78.3477L222.773 66.6229L225.118 66.9524L223.47 78.6772L221.125 78.3477Z" stroke="white" stroke-width="1.5" mask="url(#path-2-outside-1_1_1843)"/>
<path d="M229.436 79.6126C228.749 79.5161 228.153 79.3515 227.647 79.1189C227.152 78.8877 226.749 78.5349 226.439 78.0604C226.139 77.5874 225.949 76.9467 225.869 76.1383C225.8 75.3209 225.855 74.2837 226.031 73.0267C226.202 71.812 226.437 70.8324 226.735 70.088C227.046 69.3346 227.415 68.7726 227.844 68.402C228.275 68.0209 228.766 67.783 229.318 67.6882C229.87 67.5934 230.479 67.5928 231.144 67.6863C231.672 67.7605 232.159 67.8612 232.604 67.9884C233.062 68.1066 233.469 68.2339 233.827 68.3703C234.186 68.4962 234.486 68.6245 234.726 68.7552L234.47 70.5773C234.286 70.5084 234.033 70.4297 233.712 70.3415C233.401 70.2547 233.041 70.1718 232.632 70.0927C232.224 70.0032 231.793 69.9265 231.339 69.8626C230.896 69.8003 230.508 69.7996 230.176 69.8607C229.857 69.9127 229.582 70.0627 229.354 70.3106C229.137 70.5495 228.945 70.9157 228.779 71.4094C228.623 71.9045 228.488 72.5587 228.374 73.3721C228.264 74.1537 228.211 74.8033 228.213 75.3207C228.227 75.8396 228.303 76.2542 228.442 76.5647C228.583 76.8646 228.799 77.0941 229.089 77.2534C229.391 77.4035 229.78 77.512 230.255 77.5788C231.058 77.6916 231.71 77.7671 232.21 77.8052C232.722 77.8447 233.134 77.8649 233.446 77.8657L233.192 79.672C232.894 79.727 232.554 79.7654 232.174 79.7874C231.796 79.7988 231.382 79.7892 230.934 79.7586C230.485 79.7385 229.985 79.6898 229.436 79.6126Z" stroke="white" stroke-width="1.5" mask="url(#path-2-outside-1_1_1843)"/>
<path d="M267.963 84.4981L266.806 72.3791L269.23 72.7198L269.954 81.2556L273.318 73.2943L275.473 73.5972L276.497 82.1752L279.545 74.1695L281.969 74.5102L277.517 85.8408L275.125 85.5046L273.91 76.8998L270.356 84.8343L267.963 84.4981ZM284.047 86.8393C283.793 86.8037 283.507 86.7364 283.187 86.6376C282.865 86.5493 282.563 86.3992 282.28 86.1871C282.008 85.9765 281.796 85.6882 281.643 85.3219C281.501 84.9466 281.473 84.4579 281.558 83.8559L282.477 77.3122C282.55 76.7946 282.69 76.3726 282.898 76.0463C283.105 75.72 283.355 75.4751 283.647 75.3115C283.939 75.1479 284.25 75.0461 284.579 75.0062C284.907 74.9662 285.225 74.9677 285.531 75.0108C286.324 75.1221 287.019 75.2307 287.618 75.3364C288.228 75.4436 288.774 75.5472 289.255 75.6472C289.738 75.7366 290.177 75.8307 290.573 75.9293L290.296 77.894L285.923 77.2794C285.596 77.2334 285.331 77.277 285.129 77.4102C284.928 77.5434 284.804 77.7738 284.758 78.1012L284.519 79.7965L289.144 80.5757L288.884 82.4295L284.223 81.9038L283.996 83.52C283.958 83.7946 283.969 84.0171 284.032 84.1874C284.106 84.3486 284.213 84.4713 284.352 84.5555C284.503 84.6306 284.663 84.68 284.832 84.7038L289.252 85.325L288.976 87.2897C288.504 87.2772 287.98 87.2467 287.406 87.1982C286.841 87.1513 286.267 87.0975 285.683 87.037C285.11 86.9779 284.564 86.9121 284.047 86.8393ZM294.745 88.262L296.392 76.5372L301.003 77.1852C302.165 77.3485 302.972 77.7366 303.425 78.3496C303.889 78.9534 304.052 79.7465 303.914 80.7289C303.849 81.1936 303.722 81.5959 303.535 81.9358C303.359 82.2665 303.133 82.531 302.858 82.7293C302.584 82.9169 302.272 83.0293 301.922 83.0663C302.166 83.1653 302.395 83.2998 302.608 83.4698C302.832 83.6412 303.022 83.8565 303.18 84.1156C303.348 84.3762 303.461 84.6829 303.519 85.0358C303.589 85.3796 303.594 85.768 303.533 86.2011C303.422 86.9933 303.195 87.6078 302.854 88.0445C302.523 88.4827 302.079 88.7703 301.521 88.9074C300.975 89.0353 300.322 89.0458 299.561 88.939L294.745 88.262ZM297.386 86.4843L299.794 86.8228C300.069 86.8614 300.314 86.8419 300.529 86.7645C300.745 86.6871 300.921 86.5449 301.058 86.3379C301.205 86.1324 301.305 85.8448 301.357 85.4751C301.4 85.1688 301.378 84.9019 301.292 84.6743C301.205 84.4467 301.07 84.2607 300.885 84.1163C300.701 83.9719 300.477 83.8811 300.213 83.844L297.804 83.5056L297.386 86.4843ZM298.058 81.6993L300.34 82.02C300.678 82.0675 300.959 81.9831 301.183 81.7669C301.42 81.5416 301.566 81.2282 301.622 80.8268C301.706 80.3107 301.651 79.9368 301.457 79.7049C301.263 79.473 301.008 79.3348 300.691 79.2903L298.441 78.9741L298.058 81.6993ZM309.088 90.3586C308.444 90.268 307.849 90.1306 307.304 89.9463C306.76 89.7514 306.297 89.487 305.913 89.153C305.541 88.8099 305.274 88.3738 305.111 87.8447C304.96 87.3065 304.94 86.6465 305.05 85.8649L306.168 77.911L308.513 78.2406L307.397 86.1786C307.336 86.6117 307.373 86.9669 307.506 87.2441C307.65 87.5229 307.877 87.7433 308.188 87.9056C308.51 88.0692 308.909 88.1845 309.384 88.2513C309.849 88.3166 310.253 88.3142 310.597 88.244C310.951 88.1753 311.231 88.0261 311.435 87.7964C311.65 87.5681 311.788 87.2374 311.849 86.8043L312.965 78.8663L315.326 79.1981L314.208 87.152C314.098 87.9336 313.891 88.5616 313.588 89.036C313.286 89.4998 312.908 89.8453 312.456 90.0726C312.006 90.2894 311.493 90.4165 310.916 90.454C310.352 90.4824 309.743 90.4506 309.088 90.3586ZM318.329 91.5766L318.828 88.0274L316.443 79.3552L318.883 79.6981L320.384 85.8064L323.494 80.3461L325.839 80.6757L321.173 88.357L320.674 91.9061L318.329 91.5766ZM332.03 93.5022L333.382 83.8846L330.165 83.4326L330.461 81.3253L339.255 82.5612L338.959 84.6685L335.727 84.2142L334.375 93.8317L332.03 93.5022ZM338.874 94.4639L340.521 82.7391L345.37 83.4205C345.834 83.4858 346.259 83.6048 346.644 83.7774C347.031 83.9394 347.358 84.1793 347.626 84.497C347.893 84.8147 348.078 85.2283 348.178 85.738C348.29 86.2491 348.292 86.8849 348.185 87.6455C348.109 88.1842 347.992 88.6362 347.833 89.0017C347.674 89.3671 347.487 89.6586 347.274 89.8764C347.071 90.0955 346.848 90.2635 346.605 90.3802C346.363 90.4969 346.118 90.5865 345.873 90.6489L347.398 95.6619L345.005 95.3257L343.73 90.7194C343.603 90.7015 343.455 90.6808 343.286 90.657C343.129 90.6242 342.966 90.5959 342.797 90.5721C342.628 90.5484 342.459 90.5246 342.29 90.5009C342.121 90.4771 341.969 90.4503 341.833 90.4205L341.219 94.7935L338.874 94.4639ZM342.094 88.5667L344.185 88.8606C344.396 88.8903 344.59 88.8906 344.767 88.8615C344.943 88.8325 345.104 88.7635 345.248 88.6545C345.394 88.535 345.514 88.3688 345.609 88.1559C345.714 87.9445 345.791 87.6645 345.84 87.3159C345.886 86.9885 345.887 86.7139 345.843 86.4923C345.811 86.2615 345.739 86.0792 345.629 85.9452C345.52 85.8006 345.384 85.6953 345.221 85.6293C345.059 85.5527 344.873 85.4996 344.662 85.4699L342.57 85.176L342.094 88.5667ZM348.063 95.7553L353.386 84.5472L356.349 84.9636L358.377 97.205L355.937 96.8621L355.538 94.3015L351.545 93.7404L350.471 96.0938L348.063 95.7553ZM352.396 91.711L355.279 92.1163L354.561 86.7642L352.396 91.711ZM359.344 97.3409L360.616 88.2938C360.688 87.7762 360.828 87.3543 361.036 87.0279C361.243 86.7016 361.493 86.4567 361.785 86.2931C362.078 86.1295 362.388 86.0278 362.717 85.9878C363.046 85.9478 363.363 85.9494 363.67 85.9924C364.05 86.0459 364.519 86.1172 365.078 86.2064C365.648 86.2866 366.248 86.3871 366.877 86.5078C367.517 86.6301 368.128 86.7644 368.711 86.911L368.435 88.8757L364.014 88.2544C363.687 88.2084 363.426 88.2633 363.232 88.4191C363.049 88.5658 362.938 88.7818 362.898 89.067L362.618 91.0634L367.242 91.8426L366.982 93.6964L362.322 93.1707L361.689 97.6705L359.344 97.3409ZM368.427 98.6174L369.698 89.5703C369.771 89.0527 369.911 88.6307 370.119 88.3044C370.326 87.9781 370.576 87.7332 370.868 87.5696C371.16 87.406 371.471 87.3042 371.8 87.2643C372.128 87.2243 372.446 87.2258 372.752 87.2689C373.133 87.3223 373.602 87.3937 374.16 87.4829C374.731 87.5631 375.33 87.6635 375.96 87.7843C376.6 87.9065 377.211 88.0409 377.793 88.1874L377.517 90.1521L373.097 89.5309C372.769 89.4848 372.509 89.5397 372.314 89.6956C372.132 89.8423 372.021 90.0583 371.981 90.3435L371.7 92.3399L376.325 93.119L376.064 94.9728L371.404 94.4471L370.772 98.9469L368.427 98.6174ZM377.664 99.9156L379.312 88.1908L381.657 88.5204L380.009 100.245L377.664 99.9156ZM385.975 101.181C385.288 101.084 384.692 100.919 384.186 100.687C383.691 100.456 383.288 100.103 382.978 99.6283C382.678 99.1553 382.488 98.5146 382.408 97.7063C382.34 96.8888 382.394 95.8516 382.57 94.5946C382.741 93.3799 382.976 92.4003 383.274 91.656C383.585 90.9025 383.954 90.3405 384.384 89.9699C384.814 89.5888 385.305 89.3509 385.857 89.2561C386.409 89.1613 387.018 89.1607 387.683 89.2542C388.211 89.3284 388.698 89.4292 389.143 89.5564C389.601 89.6745 390.008 89.8018 390.366 89.9383C390.725 90.0642 391.025 90.1925 391.265 90.3231L391.009 92.1452C390.825 92.0763 390.572 91.9976 390.251 91.9094C389.94 91.8226 389.58 91.7397 389.171 91.6607C388.763 91.5711 388.332 91.4944 387.878 91.4305C387.435 91.3682 387.047 91.3676 386.715 91.4287C386.396 91.4807 386.121 91.6306 385.893 91.8785C385.676 92.1174 385.484 92.4836 385.318 92.9773C385.162 93.4724 385.027 94.1267 384.913 94.94C384.803 95.7217 384.75 96.3712 384.752 96.8886C384.766 97.4075 384.842 97.8222 384.981 98.1326C385.122 98.4325 385.338 98.662 385.628 98.8213C385.93 98.9714 386.319 99.0799 386.794 99.1467C387.597 99.2595 388.249 99.335 388.75 99.3731C389.261 99.4127 389.673 99.4328 389.985 99.4336L389.731 101.24C389.433 101.295 389.093 101.333 388.713 101.355C388.335 101.367 387.921 101.357 387.473 101.326C387.024 101.306 386.524 101.258 385.975 101.181Z" fill="white"/>
</g>
<g clip-path="url(#clip1_1_1843)">
<rect width="476" height="43" transform="matrix(0.990268 -0.139173 0.139191 0.990266 -51 79.2463)" fill="#7F3A6A"/>
<path d="M-27.8383 103.257L-32.2908 91.926L-29.8666 91.5853L-26.8186 99.591L-25.7788 91.0108L-23.624 90.7079L-20.2749 98.6713L-19.552 90.1357L-17.1278 89.795L-18.2842 101.914L-20.6767 102.25L-24.2159 94.3134L-25.4458 102.92L-27.8383 103.257ZM-11.7323 101.074C-11.9858 101.109 -12.2799 101.124 -12.6148 101.117C-12.9482 101.121 -13.2799 101.06 -13.61 100.934C-13.9295 100.806 -14.2134 100.588 -14.4616 100.278C-14.7007 99.9561 -14.8626 99.4941 -14.9472 98.892L-15.867 92.3483C-15.9398 91.8308 -15.9214 91.3866 -15.812 91.0157C-15.7025 90.6449 -15.5299 90.3405 -15.294 90.1027C-15.0581 89.8649 -14.7877 89.6815 -14.4827 89.5525C-14.1777 89.4234 -13.872 89.3374 -13.5657 89.2943C-12.7735 89.183 -12.0749 89.0956 -11.4698 89.0321C-10.8542 88.9671 -10.3012 88.9163 -9.81086 88.8797C-9.322 88.8326 -8.8739 88.8019 -8.46658 88.7877L-8.19042 90.7524L-12.5634 91.367C-12.8909 91.413 -13.1333 91.5279 -13.2906 91.7116C-13.4479 91.8952 -13.5035 92.1508 -13.4575 92.4783L-13.2192 94.1736L-8.55898 93.6479L-8.29842 95.5017L-12.923 96.2809L-12.6958 97.897C-12.6572 98.1716 -12.5845 98.3822 -12.4778 98.5288C-12.3619 98.6633 -12.2256 98.7519 -12.0688 98.7945C-11.9029 98.825 -11.7355 98.8284 -11.5665 98.8047L-7.14593 98.1834L-6.86977 100.148C-7.32711 100.266 -7.83875 100.381 -8.4047 100.493C-8.96007 100.603 -9.52676 100.71 -10.1047 100.813C-10.6722 100.914 -11.2147 101.001 -11.7323 101.074ZM-1.05654 99.4926L-2.70456 87.7679L1.90612 87.1199C3.06804 86.9566 3.95093 87.1072 4.55479 87.5717C5.16773 88.0241 5.54324 88.7415 5.68132 89.7239C5.74665 90.1886 5.73589 90.6102 5.64906 90.9886C5.5713 91.355 5.42728 91.6715 5.21699 91.938C5.00523 92.194 4.73628 92.388 4.41014 92.52C4.67256 92.5477 4.92961 92.6139 5.18129 92.7186C5.44354 92.8218 5.68606 92.9762 5.90886 93.1818C6.14221 93.386 6.33546 93.6497 6.4886 93.9728C6.65082 94.284 6.76237 94.6561 6.82324 95.0891C6.93459 95.8814 6.88636 96.5344 6.67853 97.0483C6.48127 97.5608 6.13342 97.9597 5.63497 98.2452C5.1456 98.5187 4.52065 98.7088 3.76013 98.8157L-1.05654 99.4926ZM0.992219 97.0558L3.40055 96.7173C3.67518 96.6787 3.90543 96.5925 4.09127 96.4587C4.27712 96.3249 4.40727 96.1396 4.48172 95.9029C4.56673 95.6648 4.58325 95.3609 4.53129 94.9912C4.48823 94.6848 4.39376 94.4342 4.24788 94.2393C4.10199 94.0444 3.92054 93.9029 3.70351 93.8149C3.48648 93.7269 3.24593 93.7015 2.98186 93.7386L0.573531 94.0771L0.992219 97.0558ZM0.319645 92.2708L2.60122 91.9502C2.93923 91.9027 3.18623 91.7441 3.34222 91.4744C3.50728 91.1927 3.5616 90.8512 3.50518 90.4498C3.44299 89.9307 3.28688 89.5864 3.03685 89.4169C2.78682 89.2474 2.50337 89.1849 2.18648 89.2294L-0.0634094 89.5456L0.319645 92.2708ZM13.3088 97.5545C12.6644 97.6451 12.0549 97.6769 11.4803 97.6499C10.9041 97.6124 10.3855 97.486 9.92434 97.2708C9.4723 97.0435 9.0952 96.6979 8.79304 96.2341C8.49995 95.7583 8.29847 95.1296 8.18861 94.3479L7.07062 86.3941L9.41557 86.0645L10.5313 94.0025C10.5922 94.4356 10.725 94.767 10.9296 94.9967C11.1448 95.225 11.4243 95.3742 11.7681 95.4444C12.1224 95.5131 12.5373 95.514 13.0126 95.4472C13.4773 95.3819 13.8653 95.2682 14.1764 95.1059C14.4981 94.9422 14.7256 94.7218 14.859 94.4445C15.0029 94.1658 15.0445 93.8099 14.9836 93.3768L13.8678 85.4388L16.2286 85.107L17.3466 93.0608C17.4565 93.8425 17.4308 94.5031 17.2697 95.0428C17.1071 95.5719 16.8399 96.008 16.468 96.3511C16.0947 96.6837 15.6363 96.9474 15.0928 97.1422C14.5583 97.3251 13.9637 97.4625 13.3088 97.5545ZM22.5277 96.1781L22.0288 92.629L17.3464 84.9499L19.7864 84.607L22.9125 90.065L24.3971 83.959L26.742 83.6295L24.3738 92.2994L24.8726 95.8485L22.5277 96.1781ZM36.2289 94.2525L34.8771 84.6351L31.6607 85.0871L31.3645 82.9798L40.1581 81.744L40.4543 83.8512L37.222 84.3055L38.5739 93.923L36.2289 94.2525ZM43.0723 93.2907L41.4243 81.566L46.2726 80.8846C46.7374 80.8193 47.1786 80.8165 47.5963 80.8763C48.0126 80.9255 48.3932 81.0659 48.7381 81.2975C49.083 81.5291 49.3741 81.8759 49.6114 82.3381C49.8593 82.7987 50.0367 83.4093 50.1436 84.1699C50.2193 84.7086 50.2311 85.1755 50.1789 85.5706C50.1267 85.9657 50.0279 86.2973 49.8825 86.5655C49.7476 86.8322 49.5797 87.0551 49.3786 87.2341C49.1776 87.4132 48.9676 87.5666 48.7486 87.6943L51.5965 92.0927L49.204 92.429L46.7083 88.3526C46.5816 88.3705 46.4337 88.3912 46.2647 88.415C46.1048 88.4267 45.9403 88.4444 45.7713 88.4682C45.6023 88.4919 45.4333 88.5157 45.2643 88.5394C45.0953 88.5632 44.9414 88.5794 44.8026 88.5882L45.4172 92.9612L43.0723 93.2907ZM44.542 86.7344L46.6334 86.4405C46.8447 86.4108 47.0311 86.3576 47.1927 86.2811C47.3543 86.2045 47.4895 86.0939 47.5985 85.9494C47.7059 85.7942 47.7758 85.6013 47.808 85.3706C47.8507 85.1384 47.8476 84.848 47.7986 84.4994C47.7526 84.172 47.6778 83.9078 47.5741 83.7069C47.4796 83.494 47.3607 83.3384 47.2177 83.24C47.0731 83.1311 46.9133 83.0673 46.7384 83.0489C46.562 83.0198 46.3681 83.0201 46.1569 83.0498L44.0654 83.3437L44.542 86.7344ZM52.2612 91.9993L54.2891 79.758L57.252 79.3416L62.5759 90.5497L60.1358 90.8926L59.046 88.5414L55.0532 89.1026L54.6696 91.6609L52.2612 91.9993ZM55.3116 86.9173L58.1952 86.5121L56.0296 81.5653L55.3116 86.9173ZM63.543 90.4138L62.2713 81.3667C62.1986 80.8491 62.2169 80.4049 62.3264 80.0341C62.4358 79.6632 62.6085 79.3589 62.8443 79.1211C63.0802 78.8833 63.3506 78.6999 63.6556 78.5708C63.9607 78.4418 64.2663 78.3558 64.5726 78.3127C64.9529 78.2593 65.4237 78.1985 65.985 78.1304C66.5554 78.0502 67.1597 77.9814 67.7979 77.9241C68.4467 77.8652 69.0713 77.8259 69.6718 77.8061L69.9479 79.7708L65.5274 80.3921C65.1999 80.4381 64.9643 80.5628 64.8205 80.7661C64.6859 80.9574 64.6386 81.1956 64.6786 81.4808L64.9593 83.4772L69.6194 82.9515L69.88 84.8053L65.2554 85.5845L65.8879 90.0842L63.543 90.4138ZM72.6256 89.1373L71.3539 80.0902C71.2812 79.5727 71.2995 79.1284 71.409 78.7576C71.5184 78.3868 71.6911 78.0824 71.927 77.8446C72.1628 77.6068 72.4332 77.4234 72.7383 77.2944C73.0433 77.1653 73.3489 77.0793 73.6553 77.0362C74.0355 76.9828 74.5063 76.922 75.0676 76.8539C75.638 76.7737 76.2423 76.705 76.8806 76.6476C77.5293 76.5887 78.1539 76.5494 78.7544 76.5296L79.0305 78.4943L74.61 79.1156C74.2825 79.1616 74.0469 79.2863 73.9032 79.4896C73.7685 79.6809 73.7212 79.9191 73.7613 80.2043L74.0419 82.2007L78.7021 81.675L78.9626 83.5288L74.3381 84.308L74.9706 88.8077L72.6256 89.1373ZM81.8629 87.8391L80.2149 76.1143L82.5599 75.7848L84.2079 87.5095L81.8629 87.8391ZM90.2004 86.7643C89.5138 86.8608 88.8953 86.8669 88.3449 86.7827C87.805 86.697 87.3206 86.4689 86.8915 86.0983C86.4729 85.7263 86.1137 85.1628 85.8137 84.4078C85.5228 83.6409 85.289 82.6289 85.1123 81.3719C84.9415 80.1572 84.897 79.1509 84.9788 78.3531C85.0696 77.5433 85.2702 76.9011 85.5805 76.4266C85.8893 75.9416 86.2959 75.5775 86.8003 75.3342C87.3047 75.091 87.8896 74.9226 88.5551 74.8291C89.0832 74.7549 89.5789 74.7175 90.042 74.7171C90.5142 74.7046 90.941 74.7146 91.3226 74.7471C91.7027 74.7691 92.0262 74.8098 92.2931 74.8693L92.5492 76.6914C92.3531 76.6758 92.0884 76.6699 91.755 76.6737C91.4322 76.676 91.0633 76.6955 90.6484 76.7323C90.232 76.7585 89.7967 76.8035 89.3425 76.8674C88.8988 76.9297 88.526 77.036 88.2239 77.1861C87.931 77.3242 87.7087 77.544 87.5572 77.8453C87.4148 78.1346 87.3316 78.5395 87.3078 79.0599C87.2946 79.5787 87.3451 80.2449 87.4595 81.0582C87.5693 81.8399 87.6969 82.479 87.8421 82.9756C87.9978 83.4708 88.1855 83.8483 88.4052 84.1083C88.6234 84.3577 88.8938 84.5189 89.2164 84.5921C89.5482 84.6532 89.9517 84.6503 90.427 84.5835C91.2298 84.4707 91.8772 84.3635 92.3692 84.2621C92.8718 84.1591 93.2732 84.065 93.5736 83.9797L93.8275 85.786C93.5557 85.9211 93.2401 86.0516 92.8808 86.1775C92.52 86.2929 92.12 86.3975 91.6808 86.4916C91.2431 86.5962 90.7496 86.6871 90.2004 86.7643Z" fill="white"/>
<mask id="path-5-outside-2_1_1843" maskUnits="userSpaceOnUse" x="123.807" y="51.4829" width="128.703" height="31.6779" fill="black">
<rect fill="white" x="123.807" y="51.4829" width="128.703" height="31.6779"/>
<path d="M129.405 81.5897L124.952 70.2591L127.376 69.9184L130.424 77.9241L131.464 69.3439L133.619 69.0411L136.968 77.0045L137.691 68.4688L140.115 68.1281L138.959 80.247L136.566 80.5832L133.027 72.6465L131.797 81.2535L129.405 81.5897Z"/>
<path d="M145.511 79.4069C145.257 79.4426 144.963 79.457 144.628 79.4502C144.295 79.454 143.963 79.3929 143.633 79.2669C143.313 79.1395 143.03 78.9208 142.781 78.611C142.542 78.2892 142.38 77.8272 142.296 77.2251L141.376 70.6815C141.303 70.1639 141.322 69.7197 141.431 69.3488C141.54 68.978 141.713 68.6737 141.949 68.4359C142.185 68.1981 142.455 68.0146 142.76 67.8856C143.065 67.7566 143.371 67.6705 143.677 67.6275C144.469 67.5161 145.168 67.4287 145.773 67.3652C146.389 67.3002 146.942 67.2495 147.432 67.2129C147.921 67.1657 148.369 67.135 148.776 67.1209L149.052 69.0856L144.679 69.7001C144.352 69.7462 144.11 69.861 143.952 70.0447C143.795 70.2284 143.739 70.4839 143.785 70.8114L144.024 72.5067L148.684 71.981L148.944 73.8348L144.32 74.614L144.547 76.2301C144.586 76.5048 144.658 76.7154 144.765 76.8619C144.881 76.9964 145.017 77.085 145.174 77.1276C145.34 77.1581 145.507 77.1615 145.676 77.1378L150.097 76.5165L150.373 78.4812C149.916 78.5993 149.404 78.7143 148.838 78.8262C148.283 78.9365 147.716 79.0431 147.138 79.1459C146.571 79.2472 146.028 79.3342 145.511 79.4069Z"/>
<path d="M156.186 77.8258L154.538 66.101L159.149 65.453C160.311 65.2897 161.194 65.4403 161.798 65.9048C162.411 66.3572 162.786 67.0746 162.924 68.057C162.99 68.5217 162.979 68.9433 162.892 69.3218C162.814 69.6882 162.67 70.0046 162.46 70.2711C162.248 70.5271 161.979 70.7211 161.653 70.8531C161.915 70.8808 162.173 70.9471 162.424 71.0517C162.686 71.1549 162.929 71.3093 163.152 71.515C163.385 71.7191 163.578 71.9828 163.732 72.306C163.894 72.6171 164.005 72.9892 164.066 73.4223C164.178 74.2145 164.129 74.8675 163.921 75.3815C163.724 75.8939 163.376 76.2929 162.878 76.5784C162.389 76.8518 161.764 77.042 161.003 77.1488L156.186 77.8258ZM158.235 75.3889L160.643 75.0505C160.918 75.0119 161.148 74.9256 161.334 74.7918C161.52 74.658 161.65 74.4727 161.725 74.2361C161.81 73.9979 161.826 73.694 161.774 73.3243C161.731 73.018 161.637 72.7673 161.491 72.5724C161.345 72.3775 161.163 72.236 160.946 72.148C160.729 72.0601 160.489 72.0346 160.225 72.0717L157.816 72.4102L158.235 75.3889ZM157.563 70.604L159.844 70.2833C160.182 70.2358 160.429 70.0772 160.585 69.8076C160.75 69.5258 160.805 69.1843 160.748 68.7829C160.686 68.2638 160.53 67.9195 160.28 67.75C160.03 67.5805 159.746 67.518 159.429 67.5626L157.18 67.8788L157.563 70.604Z"/>
<path d="M170.552 75.8876C169.907 75.9782 169.298 76.01 168.723 75.9831C168.147 75.9455 167.628 75.8192 167.167 75.6039C166.715 75.3766 166.338 75.0311 166.036 74.5673C165.743 74.0914 165.541 73.4627 165.432 72.681L164.314 64.7272L166.658 64.3977L167.774 72.3356C167.835 72.7687 167.968 73.1001 168.173 73.3299C168.388 73.5581 168.667 73.7074 169.011 73.7775C169.365 73.8462 169.78 73.8472 170.255 73.7804C170.72 73.715 171.108 73.6013 171.419 73.4391C171.741 73.2754 171.969 73.0549 172.102 72.7776C172.246 72.4989 172.287 72.143 172.226 71.7099L171.111 63.7719L173.472 63.4401L174.59 71.394C174.699 72.1756 174.674 72.8363 174.513 73.3759C174.35 73.9051 174.083 74.3412 173.711 74.6843C173.338 75.0168 172.879 75.2805 172.336 75.4754C171.801 75.6582 171.207 75.7956 170.552 75.8876Z"/>
<path d="M179.771 74.5112L179.272 70.9621L174.589 63.2831L177.029 62.9401L180.155 68.3982L181.64 62.2921L183.985 61.9626L181.617 70.6326L182.116 74.1817L179.771 74.5112Z"/>
<path d="M193.472 72.5856L192.12 62.9682L188.904 63.4202L188.607 61.3129L197.401 60.0771L197.697 62.1844L194.465 62.6386L195.817 72.2561L193.472 72.5856Z"/>
<path d="M200.315 71.6239L198.667 59.8991L203.516 59.2177C203.98 59.1524 204.422 59.1496 204.839 59.2094C205.255 59.2586 205.636 59.399 205.981 59.6306C206.326 59.8622 206.617 60.2091 206.854 60.6712C207.102 61.1319 207.28 61.7425 207.386 62.503C207.462 63.0417 207.474 63.5086 207.422 63.9037C207.37 64.2988 207.271 64.6304 207.125 64.8986C206.991 65.1653 206.823 65.3882 206.622 65.5673C206.421 65.7463 206.21 65.8997 205.991 66.0274L208.839 70.4259L206.447 70.7621L203.951 66.6858C203.824 66.7036 203.677 66.7244 203.508 66.7481C203.348 66.7598 203.183 66.7776 203.014 66.8013C202.845 66.8251 202.676 66.8488 202.507 66.8726C202.338 66.8963 202.184 66.9126 202.045 66.9213L202.66 71.2943L200.315 71.6239ZM201.785 65.0675L203.876 64.7736C204.088 64.7439 204.274 64.6908 204.436 64.6142C204.597 64.5376 204.732 64.4271 204.841 64.2825C204.949 64.1274 205.019 63.9344 205.051 63.7037C205.094 63.4715 205.091 63.1811 205.042 62.8325C204.996 62.5051 204.921 62.2409 204.817 62.0401C204.722 61.8272 204.604 61.6715 204.461 61.5731C204.316 61.4642 204.156 61.4005 203.981 61.382C203.805 61.3529 203.611 61.3532 203.4 61.3829L201.308 61.6769L201.785 65.0675Z"/>
<path d="M209.504 70.3325L211.532 58.0911L214.495 57.6747L219.819 68.8828L217.379 69.2257L216.289 66.8745L212.296 67.4357L211.912 69.994L209.504 70.3325ZM212.554 65.2505L215.438 64.8452L213.273 59.8985L212.554 65.2505Z"/>
<path d="M220.786 68.7469L219.514 59.6998C219.441 59.1823 219.46 58.738 219.569 58.3672C219.679 57.9964 219.851 57.692 220.087 57.4542C220.323 57.2164 220.594 57.033 220.899 56.904C221.204 56.7749 221.509 56.6889 221.816 56.6458C222.196 56.5924 222.667 56.5316 223.228 56.4635C223.798 56.3833 224.403 56.3146 225.041 56.2572C225.69 56.1983 226.314 56.159 226.915 56.1392L227.191 58.1039L222.77 58.7252C222.443 58.7712 222.207 58.8959 222.063 59.0992C221.929 59.2905 221.881 59.5287 221.922 59.8139L222.202 61.8103L226.862 61.2846L227.123 63.1384L222.498 63.9176L223.131 68.4173L220.786 68.7469Z"/>
<path d="M229.869 67.4704L228.597 58.4234C228.524 57.9058 228.542 57.4616 228.652 57.0907C228.761 56.7199 228.934 56.4156 229.17 56.1778C229.406 55.94 229.676 55.7565 229.981 55.6275C230.286 55.4985 230.592 55.4124 230.898 55.3694C231.278 55.3159 231.749 55.2551 232.311 55.187C232.881 55.1069 233.485 55.0381 234.123 54.9807C234.772 54.9218 235.397 54.8825 235.997 54.8628L236.273 56.8275L231.853 57.4487C231.525 57.4947 231.29 57.6194 231.146 57.8227C231.011 58.014 230.964 58.2522 231.004 58.5374L231.285 60.5338L235.945 60.0081L236.206 61.8619L231.581 62.6411L232.213 67.1409L229.869 67.4704Z"/>
<path d="M239.106 66.1722L237.458 54.4475L239.803 54.1179L241.451 65.8426L239.106 66.1722Z"/>
<path d="M247.443 65.0974C246.757 65.1939 246.138 65.2 245.588 65.1158C245.048 65.0301 244.563 64.802 244.134 64.4314C243.716 64.0594 243.357 63.4959 243.057 62.741C242.766 61.974 242.532 60.962 242.355 59.705C242.184 58.4903 242.14 57.4841 242.222 56.6862C242.313 55.8764 242.513 55.2342 242.823 54.7598C243.132 54.2747 243.539 53.9106 244.043 53.6674C244.548 53.4241 245.133 53.2557 245.798 53.1622C246.326 53.088 246.822 53.0507 247.285 53.0502C247.757 53.0377 248.184 53.0477 248.566 53.0803C248.946 53.1022 249.269 53.143 249.536 53.2024L249.792 55.0245C249.596 55.0089 249.331 55.0031 248.998 55.0068C248.675 55.0091 248.306 55.0286 247.891 55.0654C247.475 55.0916 247.04 55.1366 246.585 55.2005C246.142 55.2628 245.769 55.3691 245.467 55.5192C245.174 55.6574 244.952 55.8771 244.8 56.1785C244.658 56.4678 244.575 56.8726 244.551 57.393C244.538 57.9119 244.588 58.578 244.702 59.3913C244.812 60.173 244.94 60.8121 245.085 61.3087C245.241 61.8039 245.428 62.1814 245.648 62.4414C245.866 62.6908 246.137 62.8521 246.459 62.9252C246.791 62.9863 247.195 62.9834 247.67 62.9166C248.473 62.8038 249.12 62.6967 249.612 62.5952C250.115 62.4923 250.516 62.3981 250.817 62.3128L251.07 64.1191C250.799 64.2542 250.483 64.3847 250.124 64.5106C249.763 64.626 249.363 64.7307 248.924 64.8247C248.486 64.9293 247.993 65.0202 247.443 65.0974Z"/>
</mask>
<path d="M129.405 81.5897L124.952 70.2591L127.376 69.9184L130.424 77.9241L131.464 69.3439L133.619 69.0411L136.968 77.0045L137.691 68.4688L140.115 68.1281L138.959 80.247L136.566 80.5832L133.027 72.6465L131.797 81.2535L129.405 81.5897Z" stroke="white" stroke-width="1.5" mask="url(#path-5-outside-2_1_1843)"/>
<path d="M145.511 79.4069C145.257 79.4426 144.963 79.457 144.628 79.4502C144.295 79.454 143.963 79.3929 143.633 79.2669C143.313 79.1395 143.03 78.9208 142.781 78.611C142.542 78.2892 142.38 77.8272 142.296 77.2251L141.376 70.6815C141.303 70.1639 141.322 69.7197 141.431 69.3488C141.54 68.978 141.713 68.6737 141.949 68.4359C142.185 68.1981 142.455 68.0146 142.76 67.8856C143.065 67.7566 143.371 67.6705 143.677 67.6275C144.469 67.5161 145.168 67.4287 145.773 67.3652C146.389 67.3002 146.942 67.2495 147.432 67.2129C147.921 67.1657 148.369 67.135 148.776 67.1209L149.052 69.0856L144.679 69.7001C144.352 69.7462 144.11 69.861 143.952 70.0447C143.795 70.2284 143.739 70.4839 143.785 70.8114L144.024 72.5067L148.684 71.981L148.944 73.8348L144.32 74.614L144.547 76.2301C144.586 76.5048 144.658 76.7154 144.765 76.8619C144.881 76.9964 145.017 77.085 145.174 77.1276C145.34 77.1581 145.507 77.1615 145.676 77.1378L150.097 76.5165L150.373 78.4812C149.916 78.5993 149.404 78.7143 148.838 78.8262C148.283 78.9365 147.716 79.0431 147.138 79.1459C146.571 79.2472 146.028 79.3342 145.511 79.4069Z" stroke="white" stroke-width="1.5" mask="url(#path-5-outside-2_1_1843)"/>
<path d="M156.186 77.8258L154.538 66.101L159.149 65.453C160.311 65.2897 161.194 65.4403 161.798 65.9048C162.411 66.3572 162.786 67.0746 162.924 68.057C162.99 68.5217 162.979 68.9433 162.892 69.3218C162.814 69.6882 162.67 70.0046 162.46 70.2711C162.248 70.5271 161.979 70.7211 161.653 70.8531C161.915 70.8808 162.173 70.9471 162.424 71.0517C162.686 71.1549 162.929 71.3093 163.152 71.515C163.385 71.7191 163.578 71.9828 163.732 72.306C163.894 72.6171 164.005 72.9892 164.066 73.4223C164.178 74.2145 164.129 74.8675 163.921 75.3815C163.724 75.8939 163.376 76.2929 162.878 76.5784C162.389 76.8518 161.764 77.042 161.003 77.1488L156.186 77.8258ZM158.235 75.3889L160.643 75.0505C160.918 75.0119 161.148 74.9256 161.334 74.7918C161.52 74.658 161.65 74.4727 161.725 74.2361C161.81 73.9979 161.826 73.694 161.774 73.3243C161.731 73.018 161.637 72.7673 161.491 72.5724C161.345 72.3775 161.163 72.236 160.946 72.148C160.729 72.0601 160.489 72.0346 160.225 72.0717L157.816 72.4102L158.235 75.3889ZM157.563 70.604L159.844 70.2833C160.182 70.2358 160.429 70.0772 160.585 69.8076C160.75 69.5258 160.805 69.1843 160.748 68.7829C160.686 68.2638 160.53 67.9195 160.28 67.75C160.03 67.5805 159.746 67.518 159.429 67.5626L157.18 67.8788L157.563 70.604Z" stroke="white" stroke-width="1.5" mask="url(#path-5-outside-2_1_1843)"/>
<path d="M170.552 75.8876C169.907 75.9782 169.298 76.01 168.723 75.9831C168.147 75.9455 167.628 75.8192 167.167 75.6039C166.715 75.3766 166.338 75.0311 166.036 74.5673C165.743 74.0914 165.541 73.4627 165.432 72.681L164.314 64.7272L166.658 64.3977L167.774 72.3356C167.835 72.7687 167.968 73.1001 168.173 73.3299C168.388 73.5581 168.667 73.7074 169.011 73.7775C169.365 73.8462 169.78 73.8472 170.255 73.7804C170.72 73.715 171.108 73.6013 171.419 73.4391C171.741 73.2754 171.969 73.0549 172.102 72.7776C172.246 72.4989 172.287 72.143 172.226 71.7099L171.111 63.7719L173.472 63.4401L174.59 71.394C174.699 72.1756 174.674 72.8363 174.513 73.3759C174.35 73.9051 174.083 74.3412 173.711 74.6843C173.338 75.0168 172.879 75.2805 172.336 75.4754C171.801 75.6582 171.207 75.7956 170.552 75.8876Z" stroke="white" stroke-width="1.5" mask="url(#path-5-outside-2_1_1843)"/>
<path d="M179.771 74.5112L179.272 70.9621L174.589 63.2831L177.029 62.9401L180.155 68.3982L181.64 62.2921L183.985 61.9626L181.617 70.6326L182.116 74.1817L179.771 74.5112Z" stroke="white" stroke-width="1.5" mask="url(#path-5-outside-2_1_1843)"/>
<path d="M193.472 72.5856L192.12 62.9682L188.904 63.4202L188.607 61.3129L197.401 60.0771L197.697 62.1844L194.465 62.6386L195.817 72.2561L193.472 72.5856Z" stroke="white" stroke-width="1.5" mask="url(#path-5-outside-2_1_1843)"/>
<path d="M200.315 71.6239L198.667 59.8991L203.516 59.2177C203.98 59.1524 204.422 59.1496 204.839 59.2094C205.255 59.2586 205.636 59.399 205.981 59.6306C206.326 59.8622 206.617 60.2091 206.854 60.6712C207.102 61.1319 207.28 61.7425 207.386 62.503C207.462 63.0417 207.474 63.5086 207.422 63.9037C207.37 64.2988 207.271 64.6304 207.125 64.8986C206.991 65.1653 206.823 65.3882 206.622 65.5673C206.421 65.7463 206.21 65.8997 205.991 66.0274L208.839 70.4259L206.447 70.7621L203.951 66.6858C203.824 66.7036 203.677 66.7244 203.508 66.7481C203.348 66.7598 203.183 66.7776 203.014 66.8013C202.845 66.8251 202.676 66.8488 202.507 66.8726C202.338 66.8963 202.184 66.9126 202.045 66.9213L202.66 71.2943L200.315 71.6239ZM201.785 65.0675L203.876 64.7736C204.088 64.7439 204.274 64.6908 204.436 64.6142C204.597 64.5376 204.732 64.4271 204.841 64.2825C204.949 64.1274 205.019 63.9344 205.051 63.7037C205.094 63.4715 205.091 63.1811 205.042 62.8325C204.996 62.5051 204.921 62.2409 204.817 62.0401C204.722 61.8272 204.604 61.6715 204.461 61.5731C204.316 61.4642 204.156 61.4005 203.981 61.382C203.805 61.3529 203.611 61.3532 203.4 61.3829L201.308 61.6769L201.785 65.0675Z" stroke="white" stroke-width="1.5" mask="url(#path-5-outside-2_1_1843)"/>
<path d="M209.504 70.3325L211.532 58.0911L214.495 57.6747L219.819 68.8828L217.379 69.2257L216.289 66.8745L212.296 67.4357L211.912 69.994L209.504 70.3325ZM212.554 65.2505L215.438 64.8452L213.273 59.8985L212.554 65.2505Z" stroke="white" stroke-width="1.5" mask="url(#path-5-outside-2_1_1843)"/>
<path d="M220.786 68.7469L219.514 59.6998C219.441 59.1823 219.46 58.738 219.569 58.3672C219.679 57.9964 219.851 57.692 220.087 57.4542C220.323 57.2164 220.594 57.033 220.899 56.904C221.204 56.7749 221.509 56.6889 221.816 56.6458C222.196 56.5924 222.667 56.5316 223.228 56.4635C223.798 56.3833 224.403 56.3146 225.041 56.2572C225.69 56.1983 226.314 56.159 226.915 56.1392L227.191 58.1039L222.77 58.7252C222.443 58.7712 222.207 58.8959 222.063 59.0992C221.929 59.2905 221.881 59.5287 221.922 59.8139L222.202 61.8103L226.862 61.2846L227.123 63.1384L222.498 63.9176L223.131 68.4173L220.786 68.7469Z" stroke="white" stroke-width="1.5" mask="url(#path-5-outside-2_1_1843)"/>
<path d="M229.869 67.4704L228.597 58.4234C228.524 57.9058 228.542 57.4616 228.652 57.0907C228.761 56.7199 228.934 56.4156 229.17 56.1778C229.406 55.94 229.676 55.7565 229.981 55.6275C230.286 55.4985 230.592 55.4124 230.898 55.3694C231.278 55.3159 231.749 55.2551 232.311 55.187C232.881 55.1069 233.485 55.0381 234.123 54.9807C234.772 54.9218 235.397 54.8825 235.997 54.8628L236.273 56.8275L231.853 57.4487C231.525 57.4947 231.29 57.6194 231.146 57.8227C231.011 58.014 230.964 58.2522 231.004 58.5374L231.285 60.5338L235.945 60.0081L236.206 61.8619L231.581 62.6411L232.213 67.1409L229.869 67.4704Z" stroke="white" stroke-width="1.5" mask="url(#path-5-outside-2_1_1843)"/>
<path d="M239.106 66.1722L237.458 54.4475L239.803 54.1179L241.451 65.8426L239.106 66.1722Z" stroke="white" stroke-width="1.5" mask="url(#path-5-outside-2_1_1843)"/>
<path d="M247.443 65.0974C246.757 65.1939 246.138 65.2 245.588 65.1158C245.048 65.0301 244.563 64.802 244.134 64.4314C243.716 64.0594 243.357 63.4959 243.057 62.741C242.766 61.974 242.532 60.962 242.355 59.705C242.184 58.4903 242.14 57.4841 242.222 56.6862C242.313 55.8764 242.513 55.2342 242.823 54.7598C243.132 54.2747 243.539 53.9106 244.043 53.6674C244.548 53.4241 245.133 53.2557 245.798 53.1622C246.326 53.088 246.822 53.0507 247.285 53.0502C247.757 53.0377 248.184 53.0477 248.566 53.0803C248.946 53.1022 249.269 53.143 249.536 53.2024L249.792 55.0245C249.596 55.0089 249.331 55.0031 248.998 55.0068C248.675 55.0091 248.306 55.0286 247.891 55.0654C247.475 55.0916 247.04 55.1366 246.585 55.2005C246.142 55.2628 245.769 55.3691 245.467 55.5192C245.174 55.6574 244.952 55.8771 244.8 56.1785C244.658 56.4678 244.575 56.8726 244.551 57.393C244.538 57.9119 244.588 58.578 244.702 59.3913C244.812 60.173 244.94 60.8121 245.085 61.3087C245.241 61.8039 245.428 62.1814 245.648 62.4414C245.866 62.6908 246.137 62.8521 246.459 62.9252C246.791 62.9863 247.195 62.9834 247.67 62.9166C248.473 62.8038 249.12 62.6967 249.612 62.5952C250.115 62.4923 250.516 62.3981 250.817 62.3128L251.07 64.1191C250.799 64.2542 250.483 64.3847 250.124 64.5106C249.763 64.626 249.363 64.7307 248.924 64.8247C248.486 64.9293 247.993 65.0202 247.443 65.0974Z" stroke="white" stroke-width="1.5" mask="url(#path-5-outside-2_1_1843)"/>
<path d="M285.825 59.1742L281.372 47.8436L283.796 47.5029L286.844 55.5086L287.884 46.9284L290.039 46.6255L293.388 54.5889L294.111 46.0533L296.535 45.7126L295.379 57.8314L292.986 58.1677L289.447 50.231L288.217 58.8379L285.825 59.1742ZM301.931 56.9914C301.677 57.027 301.383 57.0415 301.048 57.0347C300.715 57.0384 300.383 56.9773 300.053 56.8514C299.734 56.7239 299.45 56.5053 299.201 56.1955C298.962 55.8737 298.8 55.4117 298.716 54.8096L297.796 48.2659C297.723 47.7484 297.742 47.3042 297.851 46.9333C297.961 46.5625 298.133 46.2581 298.369 46.0203C298.605 45.7825 298.875 45.5991 299.18 45.4701C299.485 45.341 299.791 45.255 300.097 45.2119C300.89 45.1006 301.588 45.0132 302.193 44.9497C302.809 44.8847 303.362 44.8339 303.852 44.7973C304.341 44.7502 304.789 44.7195 305.197 44.7053L305.473 46.67L301.1 47.2846C300.772 47.3306 300.53 47.4455 300.373 47.6292C300.215 47.8129 300.16 48.0684 300.206 48.3959L300.444 50.0912L305.104 49.5655L305.365 51.4193L300.74 52.1985L300.967 53.8146C301.006 54.0892 301.079 54.2998 301.185 54.4464C301.301 54.5809 301.438 54.6695 301.594 54.7121C301.76 54.7426 301.928 54.746 302.097 54.7223L306.517 54.101L306.793 56.0657C306.336 56.1838 305.824 56.2988 305.258 56.4107C304.703 56.521 304.136 56.6276 303.558 56.7304C302.991 56.8317 302.448 56.9187 301.931 56.9914ZM312.607 55.4103L310.959 43.6855L315.569 43.0375C316.731 42.8742 317.614 43.0248 318.218 43.4893C318.831 43.9417 319.206 44.6591 319.344 45.6415C319.41 46.1062 319.399 46.5278 319.312 46.9063C319.234 47.2726 319.09 47.5891 318.88 47.8556C318.668 48.1116 318.399 48.3056 318.073 48.4376C318.336 48.4653 318.593 48.5315 318.844 48.6362C319.107 48.7394 319.349 48.8938 319.572 49.0994C319.805 49.3036 319.999 49.5673 320.152 49.8905C320.314 50.2016 320.425 50.5737 320.486 51.0067C320.598 51.799 320.549 52.452 320.342 52.966C320.144 53.4784 319.797 53.8774 319.298 54.1628C318.809 54.4363 318.184 54.6264 317.423 54.7333L312.607 55.4103ZM314.655 52.9734L317.064 52.6349C317.338 52.5963 317.569 52.5101 317.754 52.3763C317.94 52.2425 318.07 52.0572 318.145 51.8205C318.23 51.5824 318.246 51.2785 318.194 50.9088C318.151 50.6024 318.057 50.3518 317.911 50.1569C317.765 49.962 317.584 49.8205 317.367 49.7325C317.15 49.6445 316.909 49.6191 316.645 49.6562L314.237 49.9947L314.655 52.9734ZM313.983 48.1884L316.264 47.8678C316.602 47.8203 316.849 47.6617 317.005 47.392C317.17 47.1103 317.225 46.7688 317.168 46.3674C317.106 45.8483 316.95 45.504 316.7 45.3345C316.45 45.165 316.166 45.1025 315.85 45.147L313.6 45.4632L313.983 48.1884ZM326.972 53.4721C326.328 53.5627 325.718 53.5945 325.143 53.5675C324.567 53.53 324.049 53.4036 323.587 53.1884C323.135 52.9611 322.758 52.6155 322.456 52.1517C322.163 51.6759 321.962 51.0472 321.852 50.2655L320.734 42.3117L323.079 41.9821L324.194 49.9201C324.255 50.3532 324.388 50.6846 324.593 50.9143C324.808 51.1426 325.087 51.2918 325.431 51.362C325.786 51.4307 326.2 51.4316 326.676 51.3648C327.14 51.2995 327.528 51.1858 327.839 51.0235C328.161 50.8598 328.389 50.6394 328.522 50.3621C328.666 50.0834 328.708 49.7275 328.647 49.2944L327.531 41.3564L329.892 41.0246L331.01 48.9784C331.12 49.7601 331.094 50.4207 330.933 50.9604C330.77 51.4895 330.503 51.9256 330.131 52.2687C329.758 52.6013 329.299 52.865 328.756 53.0598C328.221 53.2427 327.627 53.3801 326.972 53.4721ZM336.191 52.0957L335.692 48.5466L331.009 40.8675L333.449 40.5246L336.576 45.9827L338.06 39.8766L340.405 39.5471L338.037 48.217L338.536 51.7661L336.191 52.0957ZM349.892 50.1701L348.54 40.5527L345.324 41.0047L345.028 38.8974L353.821 37.6616L354.117 39.7688L350.885 40.2231L352.237 49.8406L349.892 50.1701ZM356.735 49.2084L355.087 37.4836L359.936 36.8022C360.4 36.7369 360.842 36.7341 361.259 36.7939C361.676 36.8431 362.056 36.9835 362.401 37.2151C362.746 37.4467 363.037 37.7935 363.275 38.2557C363.522 38.7163 363.7 39.3269 363.807 40.0875C363.882 40.6262 363.894 41.0931 363.842 41.4882C363.79 41.8833 363.691 42.2149 363.546 42.4831C363.411 42.7498 363.243 42.9727 363.042 43.1517C362.841 43.3308 362.631 43.4842 362.412 43.6119L365.26 48.0103L362.867 48.3466L360.371 44.2703C360.245 44.2881 360.097 44.3088 359.928 44.3326C359.768 44.3443 359.603 44.362 359.434 44.3858C359.265 44.4095 359.096 44.4333 358.927 44.457C358.758 44.4808 358.604 44.497 358.466 44.5058L359.08 48.8788L356.735 49.2084ZM358.205 42.652L360.297 42.3581C360.508 42.3284 360.694 42.2752 360.856 42.1987C361.017 42.1221 361.153 42.0115 361.262 41.867C361.369 41.7118 361.439 41.5189 361.471 41.2882C361.514 41.056 361.511 40.7656 361.462 40.417C361.416 40.0896 361.341 39.8254 361.237 39.6245C361.143 39.4116 361.024 39.256 360.881 39.1576C360.736 39.0487 360.576 38.985 360.401 38.9665C360.225 38.9374 360.031 38.9377 359.82 38.9674L357.728 39.2613L358.205 42.652ZM365.924 47.9169L367.952 35.6756L370.915 35.2592L376.239 46.4673L373.799 46.8102L372.709 44.459L368.716 45.0202L368.333 47.5785L365.924 47.9169ZM368.975 42.8349L371.858 42.4297L369.693 37.4829L368.975 42.8349ZM377.206 46.3314L375.934 37.2843C375.862 36.7667 375.88 36.3225 375.989 35.9517C376.099 35.5808 376.272 35.2765 376.507 35.0387C376.743 34.8009 377.014 34.6175 377.319 34.4884C377.624 34.3594 377.929 34.2734 378.236 34.2303C378.616 34.1769 379.087 34.1161 379.648 34.048C380.218 33.9678 380.823 33.899 381.461 33.8417C382.11 33.7828 382.734 33.7435 383.335 33.7237L383.611 35.6884L379.19 36.3097C378.863 36.3557 378.627 36.4804 378.484 36.6837C378.349 36.875 378.302 37.1132 378.342 37.3984L378.622 39.3948L383.283 38.8691L383.543 40.7229L378.919 41.5021L379.551 46.0018L377.206 46.3314ZM386.289 45.0549L385.017 36.0078C384.944 35.4903 384.963 35.046 385.072 34.6752C385.182 34.3044 385.354 34 385.59 33.7622C385.826 33.5244 386.096 33.341 386.401 33.212C386.706 33.0829 387.012 32.9969 387.318 32.9538C387.699 32.9004 388.169 32.8396 388.731 32.7715C389.301 32.6913 389.905 32.6226 390.544 32.5652C391.192 32.5063 391.817 32.467 392.417 32.4472L392.694 34.4119L388.273 35.0332C387.946 35.0792 387.71 35.2039 387.566 35.4072C387.432 35.5985 387.384 35.8367 387.424 36.1219L387.705 38.1183L392.365 37.5926L392.626 39.4464L388.001 40.2256L388.634 44.7253L386.289 45.0549ZM395.526 43.7567L393.878 32.0319L396.223 31.7024L397.871 43.4271L395.526 43.7567ZM403.863 42.6819C403.177 42.7784 402.558 42.7845 402.008 42.7003C401.468 42.6146 400.984 42.3865 400.555 42.0159C400.136 41.6439 399.777 41.0804 399.477 40.3255C399.186 39.5585 398.952 38.5465 398.775 37.2895C398.605 36.0748 398.56 35.0685 398.642 34.2707C398.733 33.4609 398.933 32.8187 399.244 32.3442C399.552 31.8592 399.959 31.4951 400.463 31.2518C400.968 31.0086 401.553 30.8402 402.218 30.7467C402.746 30.6725 403.242 30.6351 403.705 30.6347C404.177 30.6222 404.604 30.6322 404.986 30.6647C405.366 30.6867 405.689 30.7274 405.956 30.7869L406.212 32.609C406.016 32.5934 405.751 32.5875 405.418 32.5913C405.095 32.5936 404.726 32.6131 404.311 32.6499C403.895 32.6761 403.46 32.7211 403.006 32.785C402.562 32.8473 402.189 32.9536 401.887 33.1037C401.594 33.2418 401.372 33.4616 401.22 33.7629C401.078 34.0522 400.995 34.4571 400.971 34.9775C400.958 35.4964 401.008 36.1625 401.123 36.9758C401.232 37.7575 401.36 38.3966 401.505 38.8932C401.661 39.3884 401.849 39.7659 402.068 40.0259C402.286 40.2753 402.557 40.4365 402.88 40.5097C403.211 40.5708 403.615 40.5679 404.09 40.5011C404.893 40.3883 405.54 40.2811 406.032 40.1797C406.535 40.0767 406.936 39.9826 407.237 39.8973L407.491 41.7036C407.219 41.8387 406.903 41.9692 406.544 42.0951C406.183 42.2105 405.783 42.3151 405.344 42.4092C404.906 42.5138 404.413 42.6047 403.863 42.6819Z" fill="white"/>
</g>
<defs>
<clipPath id="clip0_1_1843">
<rect width="475.999" height="43" fill="white" transform="matrix(0.990268 0.139173 -0.139155 0.990271 -45.0161 13.2463)"/>
</clipPath>
<clipPath id="clip1_1_1843">
<rect width="476" height="43" fill="white" transform="matrix(0.990268 -0.139173 0.139191 0.990266 -51 79.2463)"/>
</clipPath>
</defs>
</svg>
